# xmcd
#
# Track frame offsets:
#	150
#	22252
#	47617
#	66600
#	88020
#	109187
#	133957
#	147155
#	191725
#	218935
#	254427
#
# Disc length: 3752 seconds
#
# Revision: 1
# Processed by: cddbd v1.4PL0 Copyright (c) Steve Scherf et al.
# Submitted via: EasyCDDAExtractor 5.0.7
#
DISCID=b30ea60b
DTITLE=Robert Jr. Lockwood - Swing in Tokyo: Live at the Park Tower Blues Fest
DTITLE=ival '95
DYEAR=1996
DGENRE=Blues
TTITLE0=Something To Do
TTITLE1=Every Day I Have The Blues
TTITLE2=Steady Rollin' Man
TTITLE3=Hangin' On
TTITLE4=After Hours
TTITLE5=Take A Little Walk With Me
TTITLE6=Kind Hearted Woman
TTITLE7=I'm Gonna Move To The Outskirts Of Town
TTITLE8=Going Home
TTITLE9=See See Rider
TTITLE10=Annie's Boogie
EXTD=
EXTT0=
EXTT1=
EXTT2=
EXTT3=
EXTT4=
EXTT5=
EXTT6=
EXTT7=
EXTT8=
EXTT9=
EXTT10=
PLAYORDER=
